<svg xmlns="http://www.w3.org/2000/svg" viewBox="0 0 1200 720" role="img" aria-labelledby="title desc">
  <title id="title">Abstract desk illustration</title>
  <desc id="desc">A simple illustration of a laptop, notes, and interface cards on a soft blue background.</desc>
  <rect width="1200" height="720" rx="42" fill="#eef4ff"/>
  <rect x="98" y="92" width="1004" height="536" rx="34" fill="#ffffff" stroke="#dfe7f3" stroke-width="3"/>
  <rect x="180" y="158" width="560" height="350" rx="24" fill="#11172a"/>
  <rect x="212" y="194" width="496" height="278" rx="16" fill="#f8fafc"/>
  <rect x="250" y="236" width="186" height="18" rx="9" fill="#5b4df2"/>
  <rect x="250" y="282" width="360" height="14" rx="7" fill="#c7d2fe"/>
  <rect x="250" y="318" width="300" height="14" rx="7" fill="#dbe4f0"/>
  <rect x="250" y="374" width="122" height="64" rx="14" fill="#5b4df2" opacity="0.92"/>
  <rect x="394" y="374" width="122" height="64" rx="14" fill="#14b8a6" opacity="0.85"/>
  <rect x="538" y="374" width="122" height="64" rx="14" fill="#f59e0b" opacity="0.75"/>
  <path d="M168 532h584l-48 60H216z" fill="#d6deeb"/>
  <path d="M818 172h190c25 0 45 20 45 45v132c0 25-20 45-45 45H818c-25 0-45-20-45-45V217c0-25 20-45 45-45z" fill="#f8fafc" stroke="#dfe7f3" stroke-width="3"/>
  <rect x="824" y="224" width="150" height="13" rx="6.5" fill="#5b4df2"/>
  <rect x="824" y="266" width="180" height="12" rx="6" fill="#dbe4f0"/>
  <rect x="824" y="304" width="132" height="12" rx="6" fill="#dbe4f0"/>
  <path d="M832 498c54-42 128-42 182 0" fill="none" stroke="#5b4df2" stroke-width="18" stroke-linecap="round"/>
  <circle cx="923" cy="498" r="26" fill="#14b8a6"/>
</svg>
